<?xml version="1.0" standalone="no"?>
<!DOCTYPE svg PUBLIC "-//W3C//DTD SVG 20010904//EN"
 "http://www.w3.org/TR/2001/REC-SVG-20010904/DTD/svg10.dtd">
<svg version="1.0" xmlns="http://www.w3.org/2000/svg"
 width="3872.000000pt" height="4182.000000pt" viewBox="0 0 3872.000000 4182.000000"
 preserveAspectRatio="xMidYMid meet">

<g transform="translate(0.000000,4182.000000) scale(0.100000,-0.100000)"
fill="#000000" stroke="none">
<path d="M3212 38607 l-3212 -3212 0 -5575 0 -5575 2485 -2485 2485 -2485 0
7030 0 7030 1758 1758 1757 1757 4193 0 4192 0 0 -1325 0 -1325 -3227 0 -3228
0 -802 -803 -803 -802 2 -5885 3 -5885 2143 -3 2142 -2 0 4200 0 4200 1886 -2
1886 -3 1655 -3597 1656 -3598 828 0 829 0 0 3600 0 3600 2015 0 2015 0 0
-4200 0 -4200 2143 2 2142 3 3 6025 2 6025 -662 662 -663 663 -3497 0 -3498 0
0 1325 0 1325 4198 0 4197 0 1758 -1758 1757 -1757 0 -7030 0 -7030 2485 2485
2485 2485 0 5575 0 5575 -3213 3213 -3212 3212 -12935 0 -12935 0 -3213 -3213z"/>
<path d="M36233 20218 l-2483 -2483 0 -4625 0 -4625 -1758 -1758 -1757 -1757
-4193 0 -4192 0 0 1325 0 1325 3333 0 3332 0 803 803 802 802 0 5233 0 5232
-2145 0 -2145 0 0 -3545 0 -3545 -1988 0 -1989 0 -1655 3598 -1656 3597 -831
3 -831 2 0 -3600 0 -3600 -1915 0 -1915 0 0 3530 0 3530 -2130 0 -2130 0 0
-5358 0 -5357 663 -663 662 -662 3383 0 3382 0 0 -1325 0 -1325 -4198 0 -4197
0 -1758 1758 -1757 1757 0 4595 0 4595 -2482 2498 -2483 2498 -3 -8123 -2
-8123 3212 -3212 3213 -3213 12935 0 12935 0 3213 3213 3212 3212 -2 8138 -3
8137 -2482 -2482z"/>
</g>
</svg>
